<?xml version="1.0" encoding="UTF-8"?>
<svg version="1.1" xmlns="http://www.w3.org/2000/svg" width="512" height="128">
<path d="M0 0 C3.3 0 6.6 0 10 0 C10 6.6 10 13.2 10 20 C11.98 20.66 13.96 21.32 16 22 C17.61617763 22.72733674 19.21725499 23.48923324 20.80078125 24.28515625 C21.68813965 24.72947998 22.57549805 25.17380371 23.48974609 25.6315918 C24.42125488 26.1037915 25.35276367 26.57599121 26.3125 27.0625 C27.27494629 27.5469458 28.23739258 28.0313916 29.22900391 28.53051758 C37.88204682 32.90279963 46.45940657 37.41254597 55 42 C55 45.63 55 49.26 55 53 C53.98687744 53.51908936 52.97375488 54.03817871 51.92993164 54.57299805 C48.13275622 56.51905365 44.33661741 58.4671241 40.54077148 60.41577148 C38.90498122 61.25517957 37.26891895 62.0940578 35.63256836 62.93237305 C34.84052002 63.33818604 34.04847168 63.74399902 33.23242188 64.16210938 C32.45088242 64.56234818 31.66934296 64.96258698 30.86412048 65.37495422 C28.5769548 66.55269523 26.29841392 67.74605246 24.01977539 68.94018555 C21.6634676 70.16904055 19.34519811 71.28204391 16.90014648 72.33520508 C14.56213047 73.38171467 12.81412949 74.19448431 11 76 C9.81976782 79.46921292 9.8270046 82.67643029 9.9375 86.3125 C9.93041016 87.24384766 9.92332031 88.17519531 9.91601562 89.13476562 C9.90427946 91.42331822 9.94679153 93.71203593 10 96 C6.7 96 3.4 96 0 96 C-0.495 89.07 -0.495 89.07 -1 82 C-2.80597656 82.97453125 -2.80597656 82.97453125 -4.6484375 83.96875 C-6.22384221 84.81271681 -7.7993694 85.656455 -9.375 86.5 C-10.1690625 86.92925781 -10.963125 87.35851562 -11.78125 87.80078125 C-12.54179688 88.20683594 -13.30234375 88.61289063 -14.0859375 89.03125 C-14.7876709 89.40830078 -15.4894043 89.78535156 -16.21240234 90.17382812 C-18 91 -18 91 -20 91 C-20 87.04 -20 83.08 -20 79 C-17.04447033 77.32818524 -14.08583038 75.66237821 -11.125 74 C-10.28324219 73.52304688 -9.44148438 73.04609375 -8.57421875 72.5546875 C-7.76855469 72.10351562 -6.96289062 71.65234375 -6.1328125 71.1875 C-5.38918457 70.76855469 -4.64555664 70.34960938 -3.87939453 69.91796875 C-2 69 -2 69 0 69 C-0.495 48.21 -0.495 48.21 -1 27 C-7.27 23.7 -13.54 20.4 -20 17 C-20 13.04 -20 9.08 -20 5 C-15.26210835 6.44323469 -11.01141849 8.37226733 -6.625 10.625 C-5.98433594 10.94984375 -5.34367187 11.2746875 -4.68359375 11.609375 C-3.12052499 12.40257407 -1.55999378 13.20077031 0 14 C0 9.38 0 4.76 0 0 Z M10 32 C10 42.23 10 52.46 10 63 C14.42972042 61.52342653 17.98844392 60.09885938 22.0546875 57.9609375 C23.71757813 57.09082031 23.71757813 57.09082031 25.4140625 56.203125 C26.55617188 55.59984375 27.69828125 54.9965625 28.875 54.375 C30.0403125 53.76398438 31.205625 53.15296875 32.40625 52.5234375 C35.27294981 51.01959498 38.13742221 49.51166982 41 48 C37.84536584 45.46442422 34.57602032 43.66577448 30.95703125 41.86328125 C29.22356445 40.99799805 29.22356445 40.99799805 27.45507812 40.11523438 C26.85767822 39.81963623 26.26027832 39.52403809 25.64477539 39.21948242 C23.80575845 38.30916291 21.97007125 37.39238466 20.13476562 36.47460938 C15.27102745 33.53570862 15.27102745 33.53570862 10 32 Z " fill="#F9F9F8" transform="translate(63,15)"/>
<path d="M0 0 C6.08024742 1.94492853 11.89810753 4.14389375 17.71875 6.7578125 C18.50270142 7.1063327 19.28665283 7.45485291 20.09436035 7.81393433 C21.7320903 8.54307047 23.36892494 9.27422072 25.00488281 10.00732422 C27.51926435 11.13362937 30.03672754 12.25281467 32.5546875 13.37109375 C34.15122546 14.08292125 35.74758628 14.79514623 37.34375 15.5078125 C38.09781128 15.84322052 38.85187256 16.17862854 39.62878418 16.52420044 C44.88410588 18.88410588 44.88410588 18.88410588 46 20 C46.07205511 21.68608966 46.08386068 23.37500659 46.0625 25.0625 C46.05347656 25.98160156 46.04445313 26.90070313 46.03515625 27.84765625 C46.02355469 28.55792969 46.01195312 29.26820312 46 30 C40.09394201 32.69231205 34.18550761 35.37935415 28.27539062 38.06274414 C26.2650733 38.97624453 24.25530329 39.89095041 22.24609375 40.80688477 C19.3582023 42.12312976 16.46837101 43.43502858 13.578125 44.74609375 C12.23104462 45.36175453 12.23104462 45.36175453 10.85675049 45.98985291 C10.01618103 46.37017166 9.17561157 46.75049042 8.30957031 47.14233398 C7.57232727 47.47764633 6.83508423 47.81295868 6.07550049 48.15843201 C4 49 4 49 0 50 C0 46.7 0 43.4 0 40 C4.32309959 38.18468733 8.64642984 36.36992551 12.9699707 34.55566406 C14.43943463 33.93895191 15.90883646 33.32209175 17.37817383 32.70507812 C19.49544047 31.81601255 21.61293309 30.9274871 23.73046875 30.0390625 C24.38274948 29.76502594 25.03503021 29.49098938 25.70707703 29.20864868 C29.12616731 27.77479634 32.55283948 26.36504101 36 25 C32.65416459 22.76944306 29.17812639 21.28796792 25.48828125 19.7421875 C24.76005661 19.43427277 24.03183197 19.12635803 23.28153992 18.80911255 C20.95973971 17.82817107 18.63615609 16.85153599 16.3125 15.875 C14.7362086 15.20991863 13.16003528 14.54455733 11.58398438 13.87890625 C7.72401789 12.24935514 3.86244659 10.62366337 0 9 C0 6.03 0 3.06 0 0 Z " fill="#FFFFFF" transform="translate(249,40)"/>
<path d="M0 0 C1.65 0 3.3 0 5 0 C5.33 2.31 5.66 4.62 6 7 C6.58007812 6.89300781 7.16015625 6.78601562 7.7578125 6.67578125 C8.92957031 6.49595703 8.92957031 6.49595703 10.125 6.3125 C10.89070312 6.18488281 11.65640625 6.05726562 12.4453125 5.92578125 C15 6 15 6 21 9 C21 13.95 21 18.9 21 24 C19.68 24 18.36 24 17 24 C16.93941406 23.22914062 16.87882812 22.45828125 16.81640625 21.6640625 C16.69072266 20.15972656 16.69072266 20.15972656 16.5625 18.625 C16.48128906 17.62726563 16.40007812 16.62953125 16.31640625 15.6015625 C16.15034374 13.02072387 16.15034374 13.02072387 15 11 C11.44568322 9.60366126 10.07226441 10.18554712 6 11 C5.67 15.29 5.34 19.58 5 24 C3.35 24 1.7 24 0 24 C0 16.08 0 8.16 0 0 Z " fill="#FFFFFF" transform="translate(125,48)"/>
<path d="M0 0 C3.0625 2.3125 3.0625 2.3125 5 5 C5 6.32 5 7.64 5 9 C-0.61 9 -6.22 9 -12 9 C-8.59647072 13.2389385 -8.59647072 13.2389385 -5.125 13.3125 C-2.04836026 13.00483603 0.96282631 12.57850927 4 12 C4 12.99 4 13.98 4 15 C-0.783035 17.81355 -5.60009198 17.63198924 -11 17 C-14.125 15.4375 -14.125 15.4375 -16 13 C-17.13146455 9.11059061 -17.38624541 6.96561354 -15.875 3.1875 C-11.56929977 -1.83581693 -6.03930388 -1.70367343 0 0 Z M-11 4 C-11 4.66 -11 5.32 -11 6 C-7.37 6 -3.74 6 0 6 C-1.63528189 2.97036438 -1.63528189 2.97036438 -3.8125 2.1875 C-6.65011917 1.9442755 -8.45522836 2.79830228 -11 4 Z " fill="#FFFFFF" transform="translate(441,55)"/>
<path d="M0 0 C2.125 1.5625 2.125 1.5625 3.125 2.5625 C3.36027773 4.91237262 3.53886417 7.26806039 3.6875 9.625 C3.81318359 11.56052734 3.81318359 11.56052734 3.94140625 13.53515625 C4.00199219 14.53417969 4.06257813 15.53320312 4.125 16.5625 C1.37440619 16.64357646 -1.37379021 16.70302813 -4.125 16.75 C-4.90230469 16.77513672 -5.67960937 16.80027344 -6.48046875 16.82617188 C-12.30497175 16.90084499 -12.30497175 16.90084499 -15.421875 15.05078125 C-16.14117187 14.31408203 -16.14117187 14.31408203 -16.875 13.5625 C-16.125 8.8125 -16.125 8.8125 -13.875 6.5625 C-10.03399602 5.08519078 -5.92249486 5.49504175 -1.875 5.5625 C-2.69483033 3.33864139 -2.69483033 3.33864139 -5.0625 2.8125 C-8.45291849 2.51112947 -10.69841422 3.43304728 -13.875 4.5625 C-14.535 4.2325 -15.195 3.9025 -15.875 3.5625 C-14.875 0.5625 -14.875 0.5625 -12.75 -0.625 C-8.07256971 -1.94688247 -4.40457598 -2.20228799 0 0 Z M-11.875 10.5625 C-11.545 11.5525 -11.215 12.5425 -10.875 13.5625 C-6.12909437 14.00213608 -6.12909437 14.00213608 -1.9375 12.1875 C-0.69258355 10.60709814 -0.69258355 10.60709814 -0.875 8.5625 C-2.7621875 8.500625 -2.7621875 8.500625 -4.6875 8.4375 C-5.39519531 8.41429687 -6.10289062 8.39109375 -6.83203125 8.3671875 C-9.18859719 8.42995538 -9.18859719 8.42995538 -11.875 10.5625 Z " fill="#FFFFFF" transform="translate(375.875,55.4375)"/>
<path d="M0 0 C1.98 0 3.96 0 6 0 C7.98 3.63 9.96 7.26 12 11 C12.969375 9.370625 13.93875 7.74125 14.9375 6.0625 C17.875 1.125 17.875 1.125 19 0 C20.66617115 -0.04063832 22.33388095 -0.042721 24 0 C20.94303763 6.31548269 17.78510544 12.58335841 14.4375 18.75 C13.89996094 19.75546875 13.36242187 20.7609375 12.80859375 21.796875 C11 24 11 24 8.28515625 24.328125 C7.53105469 24.21984375 6.77695313 24.1115625 6 24 C6.495 22.824375 6.99 21.64875 7.5 20.4375 C9.10646611 13.75460099 5.09565772 8.52711221 1.8203125 2.96484375 C1.21960938 1.98644531 0.61890625 1.00804687 0 0 Z " fill="#FFFFFF" transform="translate(148,55)"/>
<path d="M0 0 C1.32 0 2.64 0 4 0 C4.33 4.29 4.66 8.58 5 13 C10.32170494 13.29562367 10.32170494 13.29562367 15 11 C15.58348752 8.3443272 15.58348752 8.3443272 15.6875 5.375 C15.75324219 4.37210938 15.81898438 3.36921875 15.88671875 2.3359375 C15.92410156 1.56507812 15.96148437 0.79421875 16 0 C17.65 0 19.3 0 21 0 C21 5.61 21 11.22 21 17 C16.91625 17.0928125 16.91625 17.0928125 12.75 17.1875 C11.89889648 17.21481201 11.04779297 17.24212402 10.17089844 17.27026367 C6.91627224 17.30610927 4.49498746 17.20777251 1.46875 15.9375 C-0.78596984 12.96318872 -0.3844729 10.47688651 -0.25 6.8125 C-0.21390625 5.54019531 -0.1778125 4.26789062 -0.140625 2.95703125 C-0.09421875 1.98121094 -0.0478125 1.00539062 0 0 Z " fill="#FFFFFF" transform="translate(334,55)"/>
<path d="M0 0 C1.0209375 0.804375 1.0209375 0.804375 2.0625 1.625 C2.0625 2.285 2.0625 2.945 2.0625 3.625 C1.36382812 3.52960937 0.66515625 3.43421875 -0.0546875 3.3359375 C-0.96476562 3.22507812 -1.87484375 3.11421875 -2.8125 3 C-3.71742188 2.88398437 -4.62234375 2.76796875 -5.5546875 2.6484375 C-6.34101563 2.64070313 -7.12734375 2.63296875 -7.9375 2.625 C-8.5975 3.285 -9.2575 3.945 -9.9375 4.625 C-8.78121094 4.91503906 -8.78121094 4.91503906 -7.6015625 5.2109375 C-6.59867187 5.47132812 -5.59578125 5.73171875 -4.5625 6 C-3.56476563 6.25523438 -2.56703125 6.51046875 -1.5390625 6.7734375 C1.0625 7.625 1.0625 7.625 3.0625 9.625 C2.875 12.125 2.875 12.125 2.0625 14.625 C-1.27798103 16.85198735 -2.47035581 16.8961921 -6.375 16.875 C-7.32246094 16.88015625 -8.26992188 16.8853125 -9.24609375 16.890625 C-11.96302453 16.62248089 -13.61215583 16.01031142 -15.9375 14.625 C-15.9375 13.635 -15.9375 12.645 -15.9375 11.625 C-11.6475 11.955 -7.3575 12.285 -2.9375 12.625 C-2.6075 11.965 -2.2775 11.305 -1.9375 10.625 C-2.78054688 10.45484375 -3.62359375 10.2846875 -4.4921875 10.109375 C-5.58789062 9.86703125 -6.68359375 9.6246875 -7.8125 9.375 C-9.44832031 9.02695313 -9.44832031 9.02695313 -11.1171875 8.671875 C-13.9375 7.625 -13.9375 7.625 -15.3203125 5.515625 C-15.52398437 4.89171875 -15.72765625 4.2678125 -15.9375 3.625 C-12.01969797 -2.15842204 -6.3460024 -2.97046921 0 0 Z " fill="#FFFFFF" transform="translate(327.9375,55.375)"/>
<path d="M0 0 C2.9375 1.375 2.9375 1.375 5 3 C5 3.66 5 4.32 5 5 C1.04 4.67 -2.92 4.34 -7 4 C-6.17640092 6.22613754 -6.17640092 6.22613754 -3.78515625 6.78125 C-2.88667969 7.0184375 -1.98820313 7.255625 -1.0625 7.5 C3.78277886 8.78277886 3.78277886 8.78277886 6 11 C5.8125 13.5 5.8125 13.5 5 16 C1.67783762 18.21477492 0.44966677 18.29667707 -3.4375 18.3125 C-4.38496094 18.32925781 -5.33242187 18.34601563 -6.30859375 18.36328125 C-9.39829676 17.94623861 -10.77956094 17.15744788 -13 15 C-13 14.34 -13 13.68 -13 13 C-8.71 13.33 -4.42 13.66 0 14 C0 13.34 0 12.68 0 12 C-0.78246094 11.79503906 -1.56492188 11.59007813 -2.37109375 11.37890625 C-3.38300781 11.10949219 -4.39492187 10.84007813 -5.4375 10.5625 C-6.44683594 10.29566406 -7.45617187 10.02882813 -8.49609375 9.75390625 C-11 9 -11 9 -12 8 C-12.375 5.625 -12.375 5.625 -12 3 C-8.23783009 -0.30614932 -4.87048547 -0.52183773 0 0 Z " fill="#FFFFFF" transform="translate(238,54)"/>
<path d="M0 0 C2.9375 1.375 2.9375 1.375 5 3 C5 3.66 5 4.32 5 5 C1.04 4.67 -2.92 4.34 -7 4 C-6.17640092 6.22613754 -6.17640092 6.22613754 -3.78515625 6.78125 C-2.88667969 7.0184375 -1.98820313 7.255625 -1.0625 7.5 C3.78277886 8.78277886 3.78277886 8.78277886 6 11 C5.8125 13.5 5.8125 13.5 5 16 C1.67783762 18.21477492 0.44966677 18.29667707 -3.4375 18.3125 C-4.38496094 18.32925781 -5.33242187 18.34601563 -6.30859375 18.36328125 C-9.39829676 17.94623861 -10.77956094 17.15744788 -13 15 C-13 14.34 -13 13.68 -13 13 C-8.71 13.33 -4.42 13.66 0 14 C0 13.34 0 12.68 0 12 C-0.78246094 11.79503906 -1.56492188 11.59007813 -2.37109375 11.37890625 C-3.38300781 11.10949219 -4.39492187 10.84007813 -5.4375 10.5625 C-6.44683594 10.29566406 -7.45617187 10.02882813 -8.49609375 9.75390625 C-11 9 -11 9 -12 8 C-12.375 5.625 -12.375 5.625 -12 3 C-8.23783009 -0.30614932 -4.87048547 -0.52183773 0 0 Z " fill="#FFFFFF" transform="translate(185,54)"/>
<path d="M0 0 C6.27 0 12.54 0 19 0 C17.920147 4.319412 17.33678343 4.93689028 14.0625 7.625 C13.35222656 8.21539062 12.64195312 8.80578125 11.91015625 9.4140625 C11.27980469 9.93742187 10.64945312 10.46078125 10 11 C9.34 11.66 8.68 12.32 8 13 C11.63 13.33 15.26 13.66 19 14 C19 14.99 19 15.98 19 17 C12.4 17 5.8 17 -1 17 C0.079853 12.680588 0.66321657 12.06310972 3.9375 9.375 C5.00291016 8.48941406 5.00291016 8.48941406 6.08984375 7.5859375 C6.72019531 7.06257813 7.35054688 6.53921875 8 6 C8.66 5.34 9.32 4.68 10 4 C6.7 3.67 3.4 3.34 0 3 C0 2.01 0 1.02 0 0 Z " fill="#FFFFFF" transform="translate(403,55)"/>
<path d="M0 0 C2.125 1.1875 2.125 1.1875 3.125 4.1875 C0.03589584 5.07010119 -1.38659178 5.4072837 -4.375 4.0625 C-6.93498767 2.86595789 -6.93498767 2.86595789 -9.6875 4.25 C-12.10746788 5.99799817 -12.10746788 5.99799817 -12.375 8.75 C-12.0993063 11.54612883 -12.0993063 11.54612883 -8.875 13.1875 C-6.12112373 13.21227359 -6.12112373 13.21227359 -3.1875 12.8125 C-2.19363281 12.70164062 -1.19976562 12.59078125 -0.17578125 12.4765625 C0.58347656 12.38117188 1.34273437 12.28578125 2.125 12.1875 C2.125 13.1775 2.125 14.1675 2.125 15.1875 C-2.32360234 18.1532349 -6.65643535 17.82837636 -11.875 17.1875 C-14.87697464 15.38631522 -16.32666366 14.28417268 -17.875 11.1875 C-18.25 8.375 -18.25 8.375 -17.875 5.1875 C-12.86227929 -0.90905222 -7.61559068 -2.15223215 0 0 Z " fill="#FFFFFF" transform="translate(220.875,54.8125)"/>
<path d="M0 0 C1.65 0 3.3 0 5 0 C5 7.92 5 15.84 5 24 C3.35 24 1.7 24 0 24 C0 16.08 0 8.16 0 0 Z " fill="#FFFFFF" transform="translate(384,48)"/>
<path d="M0 0 C0 1.32 0 2.64 0 4 C-2.31 4.66 -4.62 5.32 -7 6 C-7.33 9.96 -7.66 13.92 -8 18 C-9.65 18 -11.3 18 -13 18 C-13 12.39 -13 6.78 -13 1 C-11.02 1 -9.04 1 -7 1 C-4.53721199 -0.231394 -2.7204945 -0.07159196 0 0 Z " fill="#FFFFFF" transform="translate(463,54)"/>
<path d="M0 0 C1.65 0 3.3 0 5 0 C5 5.61 5 11.22 5 17 C3.35 17 1.7 17 0 17 C0 11.39 0 5.78 0 0 Z " fill="#FFFFFF" transform="translate(394,55)"/>
<path d="M0 0 C1.65 0 3.3 0 5 0 C5 5.61 5 11.22 5 17 C3.35 17 1.7 17 0 17 C0 11.39 0 5.78 0 0 Z " fill="#FFFFFF" transform="translate(194,55)"/>
<path d="M0 0 C1.32 0 2.64 0 4 0 C4 5.61 4 11.22 4 17 C2.68 17 1.36 17 0 17 C0 11.39 0 5.78 0 0 Z " fill="#FFFFFF" transform="translate(304,55)"/>
<path d="M0 0 C1.65 0.33 3.3 0.66 5 1 C4.67 2.32 4.34 3.64 4 5 C2.35 4.67 0.7 4.34 -1 4 C-0.67 2.68 -0.34 1.36 0 0 Z " fill="#FFFFFF" transform="translate(304,48)"/>
<path d="M0 0 C-0.33 1.32 -0.66 2.64 -1 4 C-2.65 3.67 -4.3 3.34 -6 3 C-6 2.01 -6 1.02 -6 0 C-3.50907189 -1.24546405 -2.58919267 -0.7767578 0 0 Z " fill="#FFFFFF" transform="translate(399,49)"/>
<path d="M0 0 C1.98 0.495 1.98 0.495 4 1 C4 2.32 4 3.64 4 5 C2.35 4.67 0.7 4.34 -1 4 C-0.67 2.68 -0.34 1.36 0 0 Z " fill="#FFFFFF" transform="translate(195,48)"/>
</svg>
