<?xml version="1.0" encoding="UTF-8"?>
<svg version="1.1" xmlns="http://www.w3.org/2000/svg" width="500" height="500">
<path d="M0 0 C0.33 24.75 0.66 49.5 1 75 C9.77752122 80.01774075 9.77752122 80.01774075 19 84 C19 84.66 19 85.32 19 86 C19.56074219 86.12246094 20.12148438 86.24492187 20.69921875 86.37109375 C28.61476262 88.53476533 35.92314409 92.97316144 43.10766602 96.84814453 C52.57029688 101.94240532 62.19208309 106.69887551 71.92382812 111.25634766 C83.81789762 116.82652616 95.39624863 122.91673715 106.96484375 129.12890625 C116.53782918 134.26505452 126.21922722 139.15040149 135.95605469 143.96777344 C144.8798266 148.38703706 153.73150366 152.92400534 162.53051758 157.58740234 C163.2861499 157.98781738 164.04178223 158.38823242 164.8203125 158.80078125 C165.48305176 159.15309814 166.14579102 159.50541504 166.82861328 159.8684082 C169.53585826 161.27925602 172.26680866 162.64022634 175 164 C175.24795102 169.3015742 175.42896602 174.59975406 175.54931641 179.90576172 C175.5994898 181.70844305 175.66765232 183.51071965 175.75439453 185.31201172 C176.45563388 200.25253486 176.45563388 200.25253486 172.98217773 204.42236328 C170.36464727 206.01201301 167.90148255 207.03729858 165 208 C163.76648182 208.61675909 162.54213136 209.25253652 161.33203125 209.9140625 C160.17058594 210.47867188 159.00914062 211.04328125 157.8125 211.625 C150.94358166 214.99883621 144.15228801 218.50842873 137.375 222.0625 C131.1915431 225.30266947 125.00573089 228.5264354 118.75 231.625 C108.73415802 236.59063456 98.86346892 241.84686326 89.015625 247.13671875 C87.78130533 247.79958221 86.5469316 248.462345 85.3125 249.125 C84.70970215 249.44863525 84.1069043 249.77227051 83.48583984 250.10571289 C79.09459484 252.4496326 74.65233105 254.6751605 70.1875 256.875 C64.3588623 259.74976764 58.66342884 262.81269185 53 266 C45.95929115 269.96129764 38.83444385 273.68066765 31.58203125 277.23828125 C27.664148 279.16517912 23.78638943 281.16340381 19.91796875 283.1875 C18 284 18 284 15 284 C15 284.66 15 285.32 15 286 C13.68 286 12.36 286 11 286 C11 286.66 11 287.32 11 288 C7.7 289.65 4.4 291.3 1 293 C0.67 318.41 0.34 343.82 0 370 C-12.21 370 -24.42 370 -37 370 C-38.69235633 368.30764367 -38.16833809 366.15708271 -38.20532227 363.83764648 C-38.2352401 362.18604774 -38.2352401 362.18604774 -38.26576233 360.50108337 C-38.28247482 359.3031868 -38.29918732 358.10529022 -38.31640625 356.87109375 C-38.33718735 355.65172623 -38.35796844 354.4323587 -38.37937927 353.17604065 C-38.44500428 349.26325355 -38.50381972 345.35039683 -38.5625 341.4375 C-38.60567291 338.79231038 -38.64928678 336.14712791 -38.69335938 333.50195312 C-38.8006988 327.00137664 -38.90244067 320.50073021 -39 314 C-51.31868444 320.11633159 -51.31868444 320.11633159 -63.5 326.5 C-69.48339292 329.69834047 -75.5162135 332.76611841 -81.60693359 335.75415039 C-85.69090311 337.7811095 -89.69760355 339.91888875 -93.68359375 342.1328125 C-94.66690674 342.67832764 -95.65021973 343.22384277 -96.66333008 343.78588867 C-98.60124538 344.86659076 -100.53488357 345.95500753 -102.46362305 347.05200195 C-103.35476807 347.54917725 -104.24591309 348.04635254 -105.1640625 348.55859375 C-106.34669678 349.22846313 -106.34669678 349.22846313 -107.55322266 349.91186523 C-110.3575915 351.15902867 -112.96635898 351.60933293 -116 352 C-116.14831992 345.80707301 -116.2572042 339.61517931 -116.32958984 333.42089844 C-116.35976335 331.31394443 -116.4007083 329.20711604 -116.45263672 327.10058594 C-116.52542673 324.07195066 -116.55945024 321.0449753 -116.5859375 318.015625 C-116.61690521 317.07382385 -116.64787292 316.13202271 -116.67977905 315.16168213 C-116.68107828 312.63708658 -116.62051601 310.44752842 -116 308 C-113.19677734 305.49682617 -113.19677734 305.49682617 -110 304 C-109.01435059 303.45098022 -109.01435059 303.45098022 -108.00878906 302.89086914 C-107.43354492 302.60848389 -106.85830078 302.32609863 -106.265625 302.03515625 C-105.61360107 301.71224609 -104.96157715 301.38933594 -104.28979492 301.05664062 C-103.6166626 300.72857422 -102.94353027 300.40050781 -102.25 300.0625 C-100.83454024 299.36607883 -99.41917558 298.66946434 -98.00390625 297.97265625 C-97.32086426 297.63766113 -96.63782227 297.30266602 -95.93408203 296.95751953 C-92.57020573 295.29214174 -89.24368822 293.55263549 -85.91796875 291.8125 C-84 291 -84 291 -81 291 C-81 290.34 -81 289.68 -81 289 C-67 282 -53 275 -39 268 C-38.67 212.89 -38.34 157.78 -38 101 C-39.65 100.34 -41.3 99.68 -43 99 C-44.88016904 98.09943625 -46.75068635 97.17855865 -48.61328125 96.2421875 C-49.68900391 95.70271484 -50.76472656 95.16324219 -51.87304688 94.60742188 C-53.00806641 94.03572266 -54.14308594 93.46402344 -55.3125 92.875 C-56.47716797 92.29041016 -57.64183594 91.70582031 -58.84179688 91.10351562 C-61.16655553 89.93662346 -63.49094479 88.76899504 -65.81494141 87.60058594 C-70.51731937 85.23750224 -75.22526322 82.88561666 -79.93359375 80.53442383 C-82.4652209 79.26962453 -84.9953882 78.00233808 -87.51953125 76.72265625 C-91.57155886 74.67248214 -95.64842905 72.68987806 -99.76171875 70.765625 C-100.62112061 70.3627124 -101.48052246 69.9597998 -102.3659668 69.54467773 C-104.1012557 68.73292474 -105.83836225 67.92504434 -107.57739258 67.12133789 C-108.37685303 66.7474292 -109.17631348 66.37352051 -110 65.98828125 C-110.721875 65.65352783 -111.44375 65.31877441 -112.1875 64.97387695 C-114 64 -114 64 -116 62 C-116.24050903 60.08908081 -116.24050903 60.08908081 -116.22705078 57.73388672 C-116.22689972 56.85312469 -116.22674866 55.97236267 -116.22659302 55.06491089 C-116.21627045 54.11278717 -116.20594788 53.16066345 -116.1953125 52.1796875 C-116.1924826 51.20589142 -116.18965271 50.23209534 -116.18673706 49.22879028 C-116.17551913 46.11073651 -116.1504117 42.99296732 -116.125 39.875 C-116.11497228 37.76432706 -116.10584607 35.65364962 -116.09765625 33.54296875 C-116.07557458 28.36188165 -116.04208129 23.18096115 -116 18 C-112.38696218 18.59255743 -109.48915369 19.57230423 -106.2265625 21.22265625 C-105.32703857 21.67471436 -104.42751465 22.12677246 -103.50073242 22.5925293 C-102.55174072 23.07761963 -101.60274902 23.56270996 -100.625 24.0625 C-99.64055908 24.55983643 -98.65611816 25.05717285 -97.6418457 25.56958008 C-91.51403095 28.67777587 -85.44313236 31.8791136 -79.40380859 35.1550293 C-74.92289607 37.56362717 -70.36617 39.73559096 -65.75 41.875 C-56.36161193 46.30095438 -47.1848758 51.16585484 -38 56 C-38 38.18 -38 20.36 -38 2 C-25.96671283 -2.01109572 -12.68419839 0 0 0 Z M0 121 C0 162.91 0 204.82 0 248 C0.99 248 1.98 248 3 248 C3 247.34 3 246.68 3 246 C3.52722656 245.89945312 4.05445313 245.79890625 4.59765625 245.6953125 C7.7643091 244.77878533 10.49316803 243.36490293 13.4375 241.875 C14.1070874 241.53662109 14.7766748 241.19824219 15.46655273 240.84960938 C30.59233601 233.17565602 45.70245168 225.43776269 60.625 217.375 C66.30632736 214.31736436 72.07870347 211.56056066 78 209 C78 208.34 78 207.68 78 207 C78.51949219 206.90332031 79.03898437 206.80664062 79.57421875 206.70703125 C82.8505517 205.75209363 85.7842495 204.23194971 88.8125 202.6875 C89.48885498 202.3464624 90.16520996 202.0054248 90.86206055 201.65405273 C98.404893 197.83200504 105.88997327 193.89618931 113.3684082 189.94995117 C114.31546631 189.45213135 115.26252441 188.95431152 116.23828125 188.44140625 C117.08430908 187.99482666 117.93033691 187.54824707 118.80200195 187.08813477 C121 186 121 186 124 185 C124 184.01 124 183.02 124 182 C123.24082275 181.62302979 122.48164551 181.24605957 121.69946289 180.85766602 C118.15267898 179.09487389 114.60711144 177.32965537 111.0625 175.5625 C110.10070328 175.08305939 110.10070328 175.08305939 109.11947632 174.59393311 C101.63552079 170.85987394 94.17716806 167.09072868 86.8125 163.125 C80.76041506 159.86789681 74.61292313 156.90008923 68.37451172 154.01806641 C62.5713308 151.31757628 56.92577398 148.36895841 51.28491211 145.34667969 C45.46739676 142.23283648 39.5932661 139.25461045 33.6796875 136.328125 C29.88054525 134.44654711 26.09972858 132.53025239 22.3203125 130.609375 C20.53674388 129.7068905 18.75317374 128.80440874 16.96920776 127.90270996 C15.2093076 127.01104891 13.45240982 126.11346997 11.69555664 125.21582031 C10.07315063 124.39742676 10.07315063 124.39742676 8.41796875 123.5625 C7.44625732 123.06878906 6.4745459 122.57507813 5.47338867 122.06640625 C2.98977211 120.80203986 2.98977211 120.80203986 0 121 Z " fill="#F8F7F7" transform="translate(241,65)"/>
<path d="M0 0 C5 1 5 1 7 3 C5.35 3 3.7 3 2 3 C1.67 16.53 1.34 30.06 1 44 C0.67 44 0.34 44 0 44 C0 29.48 0 14.96 0 0 Z " fill="#595856" transform="translate(125,83)"/>
</svg>
